<svg width="24" height="24" viewBox="0 0 24 24" fill="none" xmlns="http://www.w3.org/2000/svg">
<path d="M15.2502 12C15.2502 13.7949 13.7951 15.25 12.0002 15.25C10.2053 15.25 8.75022 13.7949 8.75022 12C8.75022 10.2051 10.2053 8.75 12.0002 8.75C13.7951 8.75 15.2502 10.2051 15.2502 12Z" fill="#BCBCBC"/>
<path fill-rule="evenodd" clip-rule="evenodd" d="M19.623 16.9218C17.7295 18.4219 15.1597 19.75 12.0004 19.75C8.84103 19.75 6.27116 18.4219 4.37773 16.9218C2.4867 15.4237 1.23195 13.7249 0.680294 12.8976C0.315842 12.351 0.315842 11.649 0.680296 11.1024C1.23195 10.2751 2.4867 8.57635 4.37773 7.07817C6.27116 5.57809 8.84103 4.25 12.0004 4.25C15.1597 4.25 17.7295 5.57809 19.623 7.07817C21.514 8.57635 22.7688 10.2751 23.3204 11.1024C23.6849 11.649 23.6849 12.351 23.3204 12.8976C22.7688 13.7249 21.514 15.4237 19.623 16.9218ZM12.0002 16.75C14.6236 16.75 16.7502 14.6234 16.7502 12C16.7502 9.37665 14.6236 7.25 12.0002 7.25C9.37687 7.25 7.25022 9.37665 7.25022 12C7.25022 14.6234 9.37687 16.75 12.0002 16.75Z" fill="#BCBCBC"/>
</svg>
