<svg width="24" height="24" viewBox="0 0 24 24" fill="none" xmlns="http://www.w3.org/2000/svg">
<path fill-rule="evenodd" clip-rule="evenodd" d="M2.29311 20.2929C1.90259 20.6834 1.90259 21.3166 2.29311 21.7071C2.68364 22.0976 3.3168 22.0976 3.70732 21.7071L21.7073 3.70711C22.0978 3.31658 22.0978 2.68342 21.7073 2.29289C21.3168 1.90237 20.6836 1.90237 20.2931 2.29289L17.112 5.47401C15.6415 4.74594 13.931 4.25 12.0004 4.25C8.84103 4.25 6.27116 5.57809 4.37773 7.07817C2.4867 8.57635 1.23195 10.2751 0.680296 11.1024C0.315842 11.649 0.315842 12.351 0.680294 12.8976C1.23195 13.7249 2.4867 15.4237 4.37773 16.9218C4.61308 17.1083 4.85889 17.2921 5.11498 17.471L2.29311 20.2929ZM8.59335 13.9927C8.21746 13.3912 8.00022 12.6803 8.00022 11.9188C8.00022 9.75449 9.75471 8 11.919 8C12.6805 8 13.3914 8.21724 13.9929 8.59313L8.59335 13.9927Z" fill="#BCBCBC"/>
<path d="M20.3931 7.72839C21.8576 9.04323 22.8474 10.3931 23.3204 11.1024C23.6849 11.649 23.6849 12.351 23.3204 12.8976C22.7688 13.7249 21.514 15.4237 19.623 16.9218C17.7295 18.4219 15.1597 19.75 12.0004 19.75C10.8667 19.75 9.80896 19.579 8.83112 19.2904L20.3931 7.72839Z" fill="#BCBCBC"/>
</svg>
